<svg xmlns="http://www.w3.org/2000/svg" viewBox="0 0 439 160" width="439" height="160">
  <defs>
    <linearGradient id="pg" x1="0" y1="0" x2="0" y2="1">
      <stop offset="0" stop-color="#A98BFF"/><stop offset="1" stop-color="#8B6DFF"/>
    </linearGradient>
  </defs>
  <rect width="439" height="160" rx="28" fill="#14121E"/>
  <rect x="1" y="1" width="437" height="158" rx="27" fill="none" stroke="#241F38" stroke-width="1.5"/>
  <g transform="translate(20,20) scale(0.5)">
    <rect width="240" height="240" rx="54" ry="54" fill="#0B0A12"/>
    <rect x="0.75" y="0.75" width="238.5" height="238.5" rx="53.25" ry="53.25" fill="none" stroke="#2C2746" stroke-width="1.5"/>
    <g transform="translate(-13.333,-34.667) scale(2.6667)">
      <path d="M 38 41 L 62 41 L 72 53 L 50 85 L 28 53 Z" fill="url(#pg)"/>
      <g stroke="#E2B45C" stroke-width="1.5" fill="none" opacity="0.9" stroke-linecap="round">
        <line x1="28" y1="53" x2="72" y2="53"/><line x1="38" y1="41" x2="28" y2="53"/>
        <line x1="62" y1="41" x2="72" y2="53"/><line x1="38" y1="41" x2="50" y2="53"/>
        <line x1="62" y1="41" x2="50" y2="53"/><line x1="50" y1="53" x2="50" y2="85"/>
      </g>
      <path d="M 42.0 41 L 44.6 41 L 43.3 34.0 Z" fill="#E2B45C"/>
      <path d="M 48.7 41 L 51.3 41 L 50.0 31.0 Z" fill="#E2B45C"/>
      <path d="M 55.4 41 L 58.0 41 L 56.7 34.0 Z" fill="#E2B45C"/>
    </g>
  </g>
  <!-- wordmark: "Maeve" outlined from Marcellus (font-independent) -->
  <g fill="#ECEAF5" transform="translate(170.0 106.0) scale(0.03613 -0.03613)">
      <path transform="translate(0.0 0)" d="M72 4Q83 20 97.0 51.5Q111 83 119 131Q130 201 143.5 288.5Q157 376 171.5 472.0Q186 568 200.5 668.5Q215 769 228.5 866.5Q242 964 254.5 1054.5Q267 1145 277.0 1220.0Q287 1295 293.5 1350.5Q300 1406 303 1434H430L1059 258L1683 1434H1778L1942 246Q1949 190 1957.0 150.0Q1965 110 1973.0 81.5Q1981 53 1988.5 34.5Q1996 16 2003 4V0H1751V4Q1756 15 1760.5 40.0Q1765 65 1765 100Q1765 113 1764.0 126.5Q1763 140 1761 156L1634 1114L1044 4L975 12L381 1124Q346 887 320 686Q309 600 298.0 514.5Q287 429 278.5 355.0Q270 281 265.0 224.5Q260 168 260 141Q260 107 262.0 81.0Q264 55 266 37Q269 16 272 0H72Z"/>
      <path transform="translate(2140.4 0)" d="M74 295Q74 374 106.5 432.0Q139 490 193.0 531.0Q247 572 316.0 597.5Q385 623 459.0 637.5Q533 652 605.0 657.5Q677 663 737 664V715Q737 781 720.0 829.0Q703 877 672.0 908.5Q641 940 597.5 955.5Q554 971 502 971Q466 971 431.0 965.0Q396 959 358.5 945.0Q321 931 279.5 907.0Q238 883 190 846L180 852L248 993Q281 1008 313.0 1017.5Q345 1027 378.0 1033.0Q411 1039 445.5 1041.5Q480 1044 518 1044Q623 1044 697.5 1018.5Q772 993 819.5 948.5Q867 904 889.0 844.5Q911 785 911 717V391Q911 306 913.5 242.5Q916 179 919.5 133.0Q923 87 928.5 56.0Q934 25 940 4V0H719V4Q724 20 726.5 40.0Q729 60 731 88Q710 70 681.5 51.0Q653 32 616.5 16.5Q580 1 535.5 -8.5Q491 -18 438 -18Q264 -18 169.0 63.5Q74 145 74 295ZM737 586Q646 585 562.0 575.5Q478 566 413.5 536.0Q349 506 310.5 450.5Q272 395 272 303Q272 185 331.0 123.0Q390 61 494 61Q542 61 581.5 74.5Q621 88 651.5 108.5Q682 129 703.0 153.5Q724 178 735 201Q737 239 737.0 285.5Q737 332 737 391Z"/>
      <path transform="translate(3254.7 0)" d="M602 -18Q491 -18 394.0 17.0Q297 52 225.0 119.5Q153 187 111.5 286.5Q70 386 70 514Q70 627 108.0 723.5Q146 820 213.0 891.0Q280 962 369.5 1002.0Q459 1042 563 1042Q666 1042 754.0 1006.5Q842 971 906.5 903.5Q971 836 1008.5 736.5Q1046 637 1049 510Q936 512 823.0 513.0Q710 514 588 514Q501 514 418.5 513.0Q336 512 270 510Q276 406 302.5 322.0Q329 238 375.5 178.5Q422 119 488.5 87.0Q555 55 639 55Q697 55 748.5 68.5Q800 82 842.0 106.0Q884 130 917.0 162.5Q950 195 973 233L985 227L911 49Q857 21 782.0 1.5Q707 -18 602 -18ZM469 592Q569 592 669.5 592.5Q770 593 852 596Q843 683 818.0 752.0Q793 821 754.0 869.0Q715 917 662.0 943.0Q609 969 545 969Q487 969 438.5 943.5Q390 918 354.0 870.0Q318 822 296.0 752.5Q274 683 270 594Q315 592 365.0 592.0Q415 592 469 592Z"/>
      <path transform="translate(4420.1 0)" d="M248 1024V1020Q246 1015 245.0 1005.0Q244 995 244 987Q244 956 253.0 918.5Q262 881 285 825L524 256L766 817Q781 854 798.0 898.0Q815 942 815 987Q815 1000 813.0 1008.5Q811 1017 809 1020V1024H989V1020Q971 1001 943.5 952.5Q916 904 885 831L516 -14H457L115 782Q97 826 76.5 866.5Q56 907 37.5 939.0Q19 971 5.0 992.5Q-9 1014 -14 1020V1024Z"/>
      <path transform="translate(5450.4 0)" d="M602 -18Q491 -18 394.0 17.0Q297 52 225.0 119.5Q153 187 111.5 286.5Q70 386 70 514Q70 627 108.0 723.5Q146 820 213.0 891.0Q280 962 369.5 1002.0Q459 1042 563 1042Q666 1042 754.0 1006.5Q842 971 906.5 903.5Q971 836 1008.5 736.5Q1046 637 1049 510Q936 512 823.0 513.0Q710 514 588 514Q501 514 418.5 513.0Q336 512 270 510Q276 406 302.5 322.0Q329 238 375.5 178.5Q422 119 488.5 87.0Q555 55 639 55Q697 55 748.5 68.5Q800 82 842.0 106.0Q884 130 917.0 162.5Q950 195 973 233L985 227L911 49Q857 21 782.0 1.5Q707 -18 602 -18ZM469 592Q569 592 669.5 592.5Q770 593 852 596Q843 683 818.0 752.0Q793 821 754.0 869.0Q715 917 662.0 943.0Q609 969 545 969Q487 969 438.5 943.5Q390 918 354.0 870.0Q318 822 296.0 752.5Q274 683 270 594Q315 592 365.0 592.0Q415 592 469 592Z"/>
  </g>
</svg>
