<svg xmlns="http://www.w3.org/2000/svg" viewBox="0 0 1240 1000" width="1240" height="1000"><defs>
<linearGradient id="pg" x1="0" y1="0" x2="0" y2="1"><stop offset="0" stop-color="#A98BFF"/><stop offset="1" stop-color="#8B6DFF"/></linearGradient>
<linearGradient id="gg" x1="0" y1="0" x2="0" y2="1"><stop offset="0" stop-color="#EBC77C"/><stop offset="1" stop-color="#CFA049"/></linearGradient>
</defs><rect width="1240" height="1000" fill="#070610"/><text x="56" y="68" fill="#ECEAF5" font-family="Geist,Inter,system-ui,sans-serif" font-size="30" font-weight="600" text-anchor="start" letter-spacing="0.2">SNELL</text><text x="184" y="68" fill="#8E89A8" font-family="Geist,Inter,system-ui,sans-serif" font-size="16" font-weight="400" text-anchor="start" letter-spacing="0.2">· Twilight Royal identity system</text><text x="56" y="92" fill="#56516E" font-family="Geist,Inter,system-ui,sans-serif" font-size="13" font-weight="400" text-anchor="start" letter-spacing="0.2">Crowned Cipher — Marcellus wordmark — purple + gold on twilight near-black</text><line x1="56" y1="112" x2="1184" y2="112" stroke="#1B1828" stroke-width="1"/><rect x="56" y="132" width="560" height="150" rx="18" fill="#0B0A12"/><rect x="56.75" y="132.75" width="558.5" height="148.5" rx="17.25" fill="none" stroke="#221E34" stroke-width="1.5"/><g transform="translate(26.0,107.2) scale(1.1453)"><g transform="translate(36.000,133.200) scale(1.0286)"><path d="M3.515625 -0.1953125Q4.052734375 -0.9765625 4.736328125 -2.5146484375Q5.419921875 -4.052734375 5.810546875 -6.396484375Q6.34765625 -9.814453125 7.0068359375 -14.0869140625Q7.666015625 -18.359375 8.3740234375 -23.046875Q9.08203125 -27.734375 9.7900390625 -32.6416015625Q10.498046875 -37.548828125 11.1572265625 -42.3095703125Q11.81640625 -47.0703125 12.4267578125 -51.4892578125Q13.037109375 -55.908203125 13.525390625 -59.5703125Q14.013671875 -63.232421875 14.3310546875 -65.9423828125Q14.6484375 -68.65234375 14.794921875 -70.01953125H20.99609375L51.708984375 -12.59765625L82.177734375 -70.01953125H86.81640625L94.82421875 -12.01171875Q95.166015625 -9.27734375 95.556640625 -7.32421875Q95.947265625 -5.37109375 96.337890625 -3.9794921875Q96.728515625 -2.587890625 97.0947265625 -1.6845703125Q97.4609375 -0.78125 97.802734375 -0.1953125V0.0H85.498046875V-0.1953125Q85.7421875 -0.732421875 85.9619140625 -1.953125Q86.181640625 -3.173828125 86.181640625 -4.8828125Q86.181640625 -5.517578125 86.1328125 -6.1767578125Q86.083984375 -6.8359375 85.986328125 -7.6171875L79.78515625 -54.39453125L50.9765625 -0.1953125L47.607421875 -0.5859375L18.603515625 -54.8828125Q16.89453125 -43.310546875 15.625 -33.49609375Q15.087890625 -29.296875 14.55078125 -25.1220703125Q14.013671875 -20.947265625 13.5986328125 -17.333984375Q13.18359375 -13.720703125 12.939453125 -10.9619140625Q12.6953125 -8.203125 12.6953125 -6.884765625Q12.6953125 -5.224609375 12.79296875 -3.955078125Q12.890625 -2.685546875 12.98828125 -1.806640625Q13.134765625 -0.78125 13.28125 0.0H3.515625Z" fill="url(#pg)"/><path d="M 17.5 -80.9 L 22.1 -74.5 L 17.5 -68.1 L 12.9 -74.5 Z" fill="#E2B45C"/><path d="M 84.5 -80.9 L 89.1 -74.5 L 84.5 -68.1 L 79.9 -74.5 Z" fill="#E2B45C"/><path d="M 50 -90.5 L 56.0 -81.5 L 50 -72.5 L 44.0 -81.5 Z" fill="#E2B45C"/></g><g transform="translate(161.794,133.200) scale(1.0286)"><path d="M3.515625 -0.1953125Q4.052734375 -0.9765625 4.736328125 -2.5146484375Q5.419921875 -4.052734375 5.810546875 -6.396484375Q6.34765625 -9.814453125 7.0068359375 -14.0869140625Q7.666015625 -18.359375 8.3740234375 -23.046875Q9.08203125 -27.734375 9.7900390625 -32.6416015625Q10.498046875 -37.548828125 11.1572265625 -42.3095703125Q11.81640625 -47.0703125 12.4267578125 -51.4892578125Q13.037109375 -55.908203125 13.525390625 -59.5703125Q14.013671875 -63.232421875 14.3310546875 -65.9423828125Q14.6484375 -68.65234375 14.794921875 -70.01953125H20.99609375L51.708984375 -12.59765625L82.177734375 -70.01953125H86.81640625L94.82421875 -12.01171875Q95.166015625 -9.27734375 95.556640625 -7.32421875Q95.947265625 -5.37109375 96.337890625 -3.9794921875Q96.728515625 -2.587890625 97.0947265625 -1.6845703125Q97.4609375 -0.78125 97.802734375 -0.1953125V0.0H85.498046875V-0.1953125Q85.7421875 -0.732421875 85.9619140625 -1.953125Q86.181640625 -3.173828125 86.181640625 -4.8828125Q86.181640625 -5.517578125 86.1328125 -6.1767578125Q86.083984375 -6.8359375 85.986328125 -7.6171875L79.78515625 -54.39453125L50.9765625 -0.1953125L47.607421875 -0.5859375L18.603515625 -54.8828125Q16.89453125 -43.310546875 15.625 -33.49609375Q15.087890625 -29.296875 14.55078125 -25.1220703125Q14.013671875 -20.947265625 13.5986328125 -17.333984375Q13.18359375 -13.720703125 12.939453125 -10.9619140625Q12.6953125 -8.203125 12.6953125 -6.884765625Q12.6953125 -5.224609375 12.79296875 -3.955078125Q12.890625 -2.685546875 12.98828125 -1.806640625Q13.134765625 -0.78125 13.28125 0.0H3.515625ZM111.419921875 -14.404296875Q111.419921875 -18.26171875 113.0068359375 -21.09375Q114.59375 -23.92578125 117.23046875 -25.927734375Q119.8671875 -27.9296875 123.236328125 -29.1748046875Q126.60546875 -30.419921875 130.21875 -31.1279296875Q133.83203125 -31.8359375 137.34765625 -32.1044921875Q140.86328125 -32.373046875 143.79296875 -32.421875V-34.912109375Q143.79296875 -38.134765625 142.962890625 -40.478515625Q142.1328125 -42.822265625 140.619140625 -44.3603515625Q139.10546875 -45.8984375 136.9814453125 -46.6552734375Q134.857421875 -47.412109375 132.318359375 -47.412109375Q130.560546875 -47.412109375 128.8515625 -47.119140625Q127.142578125 -46.826171875 125.3115234375 -46.142578125Q123.48046875 -45.458984375 121.4541015625 -44.287109375Q119.427734375 -43.115234375 117.083984375 -41.30859375L116.595703125 -41.6015625L119.916015625 -48.486328125Q121.52734375 -49.21875 123.08984375 -49.6826171875Q124.65234375 -50.146484375 126.263671875 -50.439453125Q127.875 -50.732421875 129.5595703125 -50.8544921875Q131.244140625 -50.9765625 133.099609375 -50.9765625Q138.2265625 -50.9765625 141.8642578125 -49.7314453125Q145.501953125 -48.486328125 147.8212890625 -46.3134765625Q150.140625 -44.140625 151.21484375 -41.2353515625Q152.2890625 -38.330078125 152.2890625 -35.009765625V-19.091796875Q152.2890625 -14.94140625 152.4111328125 -11.8408203125Q152.533203125 -8.740234375 152.7041015625 -6.494140625Q152.875 -4.248046875 153.1435546875 -2.734375Q153.412109375 -1.220703125 153.705078125 -0.1953125V0.0H142.9140625V-0.1953125Q143.158203125 -0.9765625 143.2802734375 -1.953125Q143.40234375 -2.9296875 143.5 -4.296875Q142.474609375 -3.41796875 141.0830078125 -2.490234375Q139.69140625 -1.5625 137.9091796875 -0.8056640625Q136.126953125 -0.048828125 133.9541015625 0.4150390625Q131.78125 0.87890625 129.193359375 0.87890625Q120.697265625 0.87890625 116.05859375 -3.1005859375Q111.419921875 -7.080078125 111.419921875 -14.404296875ZM143.79296875 -28.61328125Q139.349609375 -28.564453125 135.248046875 -28.1005859375Q131.146484375 -27.63671875 127.9970703125 -26.171875Q124.84765625 -24.70703125 122.9677734375 -21.9970703125Q121.087890625 -19.287109375 121.087890625 -14.794921875Q121.087890625 -9.033203125 123.96875 -6.005859375Q126.849609375 -2.978515625 131.927734375 -2.978515625Q134.271484375 -2.978515625 136.2001953125 -3.6376953125Q138.12890625 -4.296875 139.6181640625 -5.2978515625Q141.107421875 -6.298828125 142.1328125 -7.4951171875Q143.158203125 -8.69140625 143.6953125 -9.814453125Q143.79296875 -11.669921875 143.79296875 -13.9404296875Q143.79296875 -16.2109375 143.79296875 -19.091796875ZM194.91015625 0.87890625Q189.490234375 0.87890625 184.75390625 -0.830078125Q180.017578125 -2.5390625 176.501953125 -5.8349609375Q172.986328125 -9.130859375 170.9599609375 -13.9892578125Q168.93359375 -18.84765625 168.93359375 -25.09765625Q168.93359375 -30.615234375 170.7890625 -35.3271484375Q172.64453125 -40.0390625 175.916015625 -43.505859375Q179.1875 -46.97265625 183.5576171875 -48.92578125Q187.927734375 -50.87890625 193.005859375 -50.87890625Q198.03515625 -50.87890625 202.33203125 -49.1455078125Q206.62890625 -47.412109375 209.7783203125 -44.1162109375Q212.927734375 -40.8203125 214.7587890625 -35.9619140625Q216.58984375 -31.103515625 216.736328125 -24.90234375Q211.21875 -25.0 205.701171875 -25.048828125Q200.18359375 -25.09765625 194.2265625 -25.09765625Q189.978515625 -25.09765625 185.9501953125 -25.048828125Q181.921875 -25.0 178.69921875 -24.90234375Q178.9921875 -19.82421875 180.2861328125 -15.72265625Q181.580078125 -11.62109375 183.8505859375 -8.7158203125Q186.12109375 -5.810546875 189.3681640625 -4.248046875Q192.615234375 -2.685546875 196.716796875 -2.685546875Q199.548828125 -2.685546875 202.0634765625 -3.3447265625Q204.578125 -4.00390625 206.62890625 -5.17578125Q208.6796875 -6.34765625 210.291015625 -7.9345703125Q211.90234375 -9.521484375 213.025390625 -11.376953125L213.611328125 -11.083984375L209.998046875 -2.392578125Q207.361328125 -1.025390625 203.69921875 -0.0732421875Q200.037109375 0.87890625 194.91015625 0.87890625ZM188.416015625 -28.90625Q193.298828125 -28.90625 198.2060546875 -28.9306640625Q203.11328125 -28.955078125 207.1171875 -29.1015625Q206.677734375 -33.349609375 205.45703125 -36.71875Q204.236328125 -40.087890625 202.33203125 -42.431640625Q200.427734375 -44.775390625 197.83984375 -46.044921875Q195.251953125 -47.314453125 192.126953125 -47.314453125Q189.294921875 -47.314453125 186.9267578125 -46.0693359375Q184.55859375 -44.82421875 182.80078125 -42.48046875Q181.04296875 -40.13671875 179.96875 -36.7431640625Q178.89453125 -33.349609375 178.69921875 -29.00390625Q180.896484375 -28.90625 183.337890625 -28.90625Q185.779296875 -28.90625 188.416015625 -28.90625ZM237.82421875 -50.0V-49.8046875Q237.7265625 -49.560546875 237.677734375 -49.072265625Q237.62890625 -48.583984375 237.62890625 -48.193359375Q237.62890625 -46.6796875 238.068359375 -44.8486328125Q238.5078125 -43.017578125 239.630859375 -40.283203125L251.30078125 -12.5L263.1171875 -39.892578125Q263.849609375 -41.69921875 264.6796875 -43.84765625Q265.509765625 -45.99609375 265.509765625 -48.193359375Q265.509765625 -48.828125 265.412109375 -49.2431640625Q265.314453125 -49.658203125 265.216796875 -49.8046875V-50.0H274.005859375V-49.8046875Q273.126953125 -48.876953125 271.7841796875 -46.5087890625Q270.44140625 -44.140625 268.927734375 -40.576171875L250.91015625 0.68359375H248.029296875L231.330078125 -38.18359375Q230.451171875 -40.33203125 229.4501953125 -42.3095703125Q228.44921875 -44.287109375 227.5458984375 -45.849609375Q226.642578125 -47.412109375 225.958984375 -48.4619140625Q225.275390625 -49.51171875 225.03125 -49.8046875V-50.0ZM308.716796875 0.87890625Q303.296875 0.87890625 298.560546875 -0.830078125Q293.82421875 -2.5390625 290.30859375 -5.8349609375Q286.79296875 -9.130859375 284.7666015625 -13.9892578125Q282.740234375 -18.84765625 282.740234375 -25.09765625Q282.740234375 -30.615234375 284.595703125 -35.3271484375Q286.451171875 -40.0390625 289.72265625 -43.505859375Q292.994140625 -46.97265625 297.3642578125 -48.92578125Q301.734375 -50.87890625 306.8125 -50.87890625Q311.841796875 -50.87890625 316.138671875 -49.1455078125Q320.435546875 -47.412109375 323.5849609375 -44.1162109375Q326.734375 -40.8203125 328.5654296875 -35.9619140625Q330.396484375 -31.103515625 330.54296875 -24.90234375Q325.025390625 -25.0 319.5078125 -25.048828125Q313.990234375 -25.09765625 308.033203125 -25.09765625Q303.78515625 -25.09765625 299.7568359375 -25.048828125Q295.728515625 -25.0 292.505859375 -24.90234375Q292.798828125 -19.82421875 294.0927734375 -15.72265625Q295.38671875 -11.62109375 297.6572265625 -8.7158203125Q299.927734375 -5.810546875 303.1748046875 -4.248046875Q306.421875 -2.685546875 310.5234375 -2.685546875Q313.35546875 -2.685546875 315.8701171875 -3.3447265625Q318.384765625 -4.00390625 320.435546875 -5.17578125Q322.486328125 -6.34765625 324.09765625 -7.9345703125Q325.708984375 -9.521484375 326.83203125 -11.376953125L327.41796875 -11.083984375L323.8046875 -2.392578125Q321.16796875 -1.025390625 317.505859375 -0.0732421875Q313.84375 0.87890625 308.716796875 0.87890625ZM302.22265625 -28.90625Q307.10546875 -28.90625 312.0126953125 -28.9306640625Q316.919921875 -28.955078125 320.923828125 -29.1015625Q320.484375 -33.349609375 319.263671875 -36.71875Q318.04296875 -40.087890625 316.138671875 -42.431640625Q314.234375 -44.775390625 311.646484375 -46.044921875Q309.05859375 -47.314453125 305.93359375 -47.314453125Q303.1015625 -47.314453125 300.7333984375 -46.0693359375Q298.365234375 -44.82421875 296.607421875 -42.48046875Q294.849609375 -40.13671875 293.775390625 -36.7431640625Q292.701171875 -33.349609375 292.505859375 -29.00390625Q294.703125 -28.90625 297.14453125 -28.90625Q299.5859375 -28.90625 302.22265625 -28.90625Z" fill="#ECEAF5"/></g></g><text x="640" y="168" fill="#9A95B4" font-family="Geist,Inter,system-ui,sans-serif" font-size="13" font-weight="600" text-anchor="start" letter-spacing="0.2">PRIMARY LOCKUP</text><text x="640" y="190" fill="#56516E" font-family="Geist,Inter,system-ui,sans-serif" font-size="12" font-weight="400" text-anchor="start" letter-spacing="0.2">Horizontal · mark + wordmark · on #0B0A12</text><rect x="56" y="300" width="560" height="150" rx="18" fill="#F4F2F8"/><rect x="56.75" y="300.75" width="558.5" height="148.5" rx="17.25" fill="none" stroke="#E2DEEC" stroke-width="1.5"/><g transform="translate(26.0,275.2) scale(1.1453)"><g transform="translate(36.000,133.200) scale(1.0286)"><path d="M3.515625 -0.1953125Q4.052734375 -0.9765625 4.736328125 -2.5146484375Q5.419921875 -4.052734375 5.810546875 -6.396484375Q6.34765625 -9.814453125 7.0068359375 -14.0869140625Q7.666015625 -18.359375 8.3740234375 -23.046875Q9.08203125 -27.734375 9.7900390625 -32.6416015625Q10.498046875 -37.548828125 11.1572265625 -42.3095703125Q11.81640625 -47.0703125 12.4267578125 -51.4892578125Q13.037109375 -55.908203125 13.525390625 -59.5703125Q14.013671875 -63.232421875 14.3310546875 -65.9423828125Q14.6484375 -68.65234375 14.794921875 -70.01953125H20.99609375L51.708984375 -12.59765625L82.177734375 -70.01953125H86.81640625L94.82421875 -12.01171875Q95.166015625 -9.27734375 95.556640625 -7.32421875Q95.947265625 -5.37109375 96.337890625 -3.9794921875Q96.728515625 -2.587890625 97.0947265625 -1.6845703125Q97.4609375 -0.78125 97.802734375 -0.1953125V0.0H85.498046875V-0.1953125Q85.7421875 -0.732421875 85.9619140625 -1.953125Q86.181640625 -3.173828125 86.181640625 -4.8828125Q86.181640625 -5.517578125 86.1328125 -6.1767578125Q86.083984375 -6.8359375 85.986328125 -7.6171875L79.78515625 -54.39453125L50.9765625 -0.1953125L47.607421875 -0.5859375L18.603515625 -54.8828125Q16.89453125 -43.310546875 15.625 -33.49609375Q15.087890625 -29.296875 14.55078125 -25.1220703125Q14.013671875 -20.947265625 13.5986328125 -17.333984375Q13.18359375 -13.720703125 12.939453125 -10.9619140625Q12.6953125 -8.203125 12.6953125 -6.884765625Q12.6953125 -5.224609375 12.79296875 -3.955078125Q12.890625 -2.685546875 12.98828125 -1.806640625Q13.134765625 -0.78125 13.28125 0.0H3.515625Z" fill="url(#pg)"/><path d="M 17.5 -80.9 L 22.1 -74.5 L 17.5 -68.1 L 12.9 -74.5 Z" fill="#E2B45C"/><path d="M 84.5 -80.9 L 89.1 -74.5 L 84.5 -68.1 L 79.9 -74.5 Z" fill="#E2B45C"/><path d="M 50 -90.5 L 56.0 -81.5 L 50 -72.5 L 44.0 -81.5 Z" fill="#E2B45C"/></g><g transform="translate(161.794,133.200) scale(1.0286)"><path d="M3.515625 -0.1953125Q4.052734375 -0.9765625 4.736328125 -2.5146484375Q5.419921875 -4.052734375 5.810546875 -6.396484375Q6.34765625 -9.814453125 7.0068359375 -14.0869140625Q7.666015625 -18.359375 8.3740234375 -23.046875Q9.08203125 -27.734375 9.7900390625 -32.6416015625Q10.498046875 -37.548828125 11.1572265625 -42.3095703125Q11.81640625 -47.0703125 12.4267578125 -51.4892578125Q13.037109375 -55.908203125 13.525390625 -59.5703125Q14.013671875 -63.232421875 14.3310546875 -65.9423828125Q14.6484375 -68.65234375 14.794921875 -70.01953125H20.99609375L51.708984375 -12.59765625L82.177734375 -70.01953125H86.81640625L94.82421875 -12.01171875Q95.166015625 -9.27734375 95.556640625 -7.32421875Q95.947265625 -5.37109375 96.337890625 -3.9794921875Q96.728515625 -2.587890625 97.0947265625 -1.6845703125Q97.4609375 -0.78125 97.802734375 -0.1953125V0.0H85.498046875V-0.1953125Q85.7421875 -0.732421875 85.9619140625 -1.953125Q86.181640625 -3.173828125 86.181640625 -4.8828125Q86.181640625 -5.517578125 86.1328125 -6.1767578125Q86.083984375 -6.8359375 85.986328125 -7.6171875L79.78515625 -54.39453125L50.9765625 -0.1953125L47.607421875 -0.5859375L18.603515625 -54.8828125Q16.89453125 -43.310546875 15.625 -33.49609375Q15.087890625 -29.296875 14.55078125 -25.1220703125Q14.013671875 -20.947265625 13.5986328125 -17.333984375Q13.18359375 -13.720703125 12.939453125 -10.9619140625Q12.6953125 -8.203125 12.6953125 -6.884765625Q12.6953125 -5.224609375 12.79296875 -3.955078125Q12.890625 -2.685546875 12.98828125 -1.806640625Q13.134765625 -0.78125 13.28125 0.0H3.515625ZM111.419921875 -14.404296875Q111.419921875 -18.26171875 113.0068359375 -21.09375Q114.59375 -23.92578125 117.23046875 -25.927734375Q119.8671875 -27.9296875 123.236328125 -29.1748046875Q126.60546875 -30.419921875 130.21875 -31.1279296875Q133.83203125 -31.8359375 137.34765625 -32.1044921875Q140.86328125 -32.373046875 143.79296875 -32.421875V-34.912109375Q143.79296875 -38.134765625 142.962890625 -40.478515625Q142.1328125 -42.822265625 140.619140625 -44.3603515625Q139.10546875 -45.8984375 136.9814453125 -46.6552734375Q134.857421875 -47.412109375 132.318359375 -47.412109375Q130.560546875 -47.412109375 128.8515625 -47.119140625Q127.142578125 -46.826171875 125.3115234375 -46.142578125Q123.48046875 -45.458984375 121.4541015625 -44.287109375Q119.427734375 -43.115234375 117.083984375 -41.30859375L116.595703125 -41.6015625L119.916015625 -48.486328125Q121.52734375 -49.21875 123.08984375 -49.6826171875Q124.65234375 -50.146484375 126.263671875 -50.439453125Q127.875 -50.732421875 129.5595703125 -50.8544921875Q131.244140625 -50.9765625 133.099609375 -50.9765625Q138.2265625 -50.9765625 141.8642578125 -49.7314453125Q145.501953125 -48.486328125 147.8212890625 -46.3134765625Q150.140625 -44.140625 151.21484375 -41.2353515625Q152.2890625 -38.330078125 152.2890625 -35.009765625V-19.091796875Q152.2890625 -14.94140625 152.4111328125 -11.8408203125Q152.533203125 -8.740234375 152.7041015625 -6.494140625Q152.875 -4.248046875 153.1435546875 -2.734375Q153.412109375 -1.220703125 153.705078125 -0.1953125V0.0H142.9140625V-0.1953125Q143.158203125 -0.9765625 143.2802734375 -1.953125Q143.40234375 -2.9296875 143.5 -4.296875Q142.474609375 -3.41796875 141.0830078125 -2.490234375Q139.69140625 -1.5625 137.9091796875 -0.8056640625Q136.126953125 -0.048828125 133.9541015625 0.4150390625Q131.78125 0.87890625 129.193359375 0.87890625Q120.697265625 0.87890625 116.05859375 -3.1005859375Q111.419921875 -7.080078125 111.419921875 -14.404296875ZM143.79296875 -28.61328125Q139.349609375 -28.564453125 135.248046875 -28.1005859375Q131.146484375 -27.63671875 127.9970703125 -26.171875Q124.84765625 -24.70703125 122.9677734375 -21.9970703125Q121.087890625 -19.287109375 121.087890625 -14.794921875Q121.087890625 -9.033203125 123.96875 -6.005859375Q126.849609375 -2.978515625 131.927734375 -2.978515625Q134.271484375 -2.978515625 136.2001953125 -3.6376953125Q138.12890625 -4.296875 139.6181640625 -5.2978515625Q141.107421875 -6.298828125 142.1328125 -7.4951171875Q143.158203125 -8.69140625 143.6953125 -9.814453125Q143.79296875 -11.669921875 143.79296875 -13.9404296875Q143.79296875 -16.2109375 143.79296875 -19.091796875ZM194.91015625 0.87890625Q189.490234375 0.87890625 184.75390625 -0.830078125Q180.017578125 -2.5390625 176.501953125 -5.8349609375Q172.986328125 -9.130859375 170.9599609375 -13.9892578125Q168.93359375 -18.84765625 168.93359375 -25.09765625Q168.93359375 -30.615234375 170.7890625 -35.3271484375Q172.64453125 -40.0390625 175.916015625 -43.505859375Q179.1875 -46.97265625 183.5576171875 -48.92578125Q187.927734375 -50.87890625 193.005859375 -50.87890625Q198.03515625 -50.87890625 202.33203125 -49.1455078125Q206.62890625 -47.412109375 209.7783203125 -44.1162109375Q212.927734375 -40.8203125 214.7587890625 -35.9619140625Q216.58984375 -31.103515625 216.736328125 -24.90234375Q211.21875 -25.0 205.701171875 -25.048828125Q200.18359375 -25.09765625 194.2265625 -25.09765625Q189.978515625 -25.09765625 185.9501953125 -25.048828125Q181.921875 -25.0 178.69921875 -24.90234375Q178.9921875 -19.82421875 180.2861328125 -15.72265625Q181.580078125 -11.62109375 183.8505859375 -8.7158203125Q186.12109375 -5.810546875 189.3681640625 -4.248046875Q192.615234375 -2.685546875 196.716796875 -2.685546875Q199.548828125 -2.685546875 202.0634765625 -3.3447265625Q204.578125 -4.00390625 206.62890625 -5.17578125Q208.6796875 -6.34765625 210.291015625 -7.9345703125Q211.90234375 -9.521484375 213.025390625 -11.376953125L213.611328125 -11.083984375L209.998046875 -2.392578125Q207.361328125 -1.025390625 203.69921875 -0.0732421875Q200.037109375 0.87890625 194.91015625 0.87890625ZM188.416015625 -28.90625Q193.298828125 -28.90625 198.2060546875 -28.9306640625Q203.11328125 -28.955078125 207.1171875 -29.1015625Q206.677734375 -33.349609375 205.45703125 -36.71875Q204.236328125 -40.087890625 202.33203125 -42.431640625Q200.427734375 -44.775390625 197.83984375 -46.044921875Q195.251953125 -47.314453125 192.126953125 -47.314453125Q189.294921875 -47.314453125 186.9267578125 -46.0693359375Q184.55859375 -44.82421875 182.80078125 -42.48046875Q181.04296875 -40.13671875 179.96875 -36.7431640625Q178.89453125 -33.349609375 178.69921875 -29.00390625Q180.896484375 -28.90625 183.337890625 -28.90625Q185.779296875 -28.90625 188.416015625 -28.90625ZM237.82421875 -50.0V-49.8046875Q237.7265625 -49.560546875 237.677734375 -49.072265625Q237.62890625 -48.583984375 237.62890625 -48.193359375Q237.62890625 -46.6796875 238.068359375 -44.8486328125Q238.5078125 -43.017578125 239.630859375 -40.283203125L251.30078125 -12.5L263.1171875 -39.892578125Q263.849609375 -41.69921875 264.6796875 -43.84765625Q265.509765625 -45.99609375 265.509765625 -48.193359375Q265.509765625 -48.828125 265.412109375 -49.2431640625Q265.314453125 -49.658203125 265.216796875 -49.8046875V-50.0H274.005859375V-49.8046875Q273.126953125 -48.876953125 271.7841796875 -46.5087890625Q270.44140625 -44.140625 268.927734375 -40.576171875L250.91015625 0.68359375H248.029296875L231.330078125 -38.18359375Q230.451171875 -40.33203125 229.4501953125 -42.3095703125Q228.44921875 -44.287109375 227.5458984375 -45.849609375Q226.642578125 -47.412109375 225.958984375 -48.4619140625Q225.275390625 -49.51171875 225.03125 -49.8046875V-50.0ZM308.716796875 0.87890625Q303.296875 0.87890625 298.560546875 -0.830078125Q293.82421875 -2.5390625 290.30859375 -5.8349609375Q286.79296875 -9.130859375 284.7666015625 -13.9892578125Q282.740234375 -18.84765625 282.740234375 -25.09765625Q282.740234375 -30.615234375 284.595703125 -35.3271484375Q286.451171875 -40.0390625 289.72265625 -43.505859375Q292.994140625 -46.97265625 297.3642578125 -48.92578125Q301.734375 -50.87890625 306.8125 -50.87890625Q311.841796875 -50.87890625 316.138671875 -49.1455078125Q320.435546875 -47.412109375 323.5849609375 -44.1162109375Q326.734375 -40.8203125 328.5654296875 -35.9619140625Q330.396484375 -31.103515625 330.54296875 -24.90234375Q325.025390625 -25.0 319.5078125 -25.048828125Q313.990234375 -25.09765625 308.033203125 -25.09765625Q303.78515625 -25.09765625 299.7568359375 -25.048828125Q295.728515625 -25.0 292.505859375 -24.90234375Q292.798828125 -19.82421875 294.0927734375 -15.72265625Q295.38671875 -11.62109375 297.6572265625 -8.7158203125Q299.927734375 -5.810546875 303.1748046875 -4.248046875Q306.421875 -2.685546875 310.5234375 -2.685546875Q313.35546875 -2.685546875 315.8701171875 -3.3447265625Q318.384765625 -4.00390625 320.435546875 -5.17578125Q322.486328125 -6.34765625 324.09765625 -7.9345703125Q325.708984375 -9.521484375 326.83203125 -11.376953125L327.41796875 -11.083984375L323.8046875 -2.392578125Q321.16796875 -1.025390625 317.505859375 -0.0732421875Q313.84375 0.87890625 308.716796875 0.87890625ZM302.22265625 -28.90625Q307.10546875 -28.90625 312.0126953125 -28.9306640625Q316.919921875 -28.955078125 320.923828125 -29.1015625Q320.484375 -33.349609375 319.263671875 -36.71875Q318.04296875 -40.087890625 316.138671875 -42.431640625Q314.234375 -44.775390625 311.646484375 -46.044921875Q309.05859375 -47.314453125 305.93359375 -47.314453125Q303.1015625 -47.314453125 300.7333984375 -46.0693359375Q298.365234375 -44.82421875 296.607421875 -42.48046875Q294.849609375 -40.13671875 293.775390625 -36.7431640625Q292.701171875 -33.349609375 292.505859375 -29.00390625Q294.703125 -28.90625 297.14453125 -28.90625Q299.5859375 -28.90625 302.22265625 -28.90625Z" fill="#0B0A12"/></g></g><text x="640" y="336" fill="#9A95B4" font-family="Geist,Inter,system-ui,sans-serif" font-size="13" font-weight="600" text-anchor="start" letter-spacing="0.2">ON LIGHT</text><text x="640" y="358" fill="#56516E" font-family="Geist,Inter,system-ui,sans-serif" font-size="12" font-weight="400" text-anchor="start" letter-spacing="0.2">Wordmark flips to near-black · mark palette holds</text><rect x="640" y="132" width="544" height="318" rx="18" fill="#0E0C18"/><rect x="640.75" y="132.75" width="542.5" height="316.5" rx="17.25" fill="none" stroke="#1B1828" stroke-width="1.5"/><text x="664" y="170" fill="#9A95B4" font-family="Geist,Inter,system-ui,sans-serif" font-size="13" font-weight="600" text-anchor="start" letter-spacing="0.2">APP ICON · LAUNCHER TILE</text><g transform="translate(664,196) scale(0.2930)"><rect width="512" height="512" rx="115.2" ry="115.2" fill="#0B0A12"/><rect x="0.75" y="0.75" width="510.5" height="510.5" rx="114.45" ry="114.45" fill="none" stroke="#241F38" stroke-width="1.5"/><g transform="translate(80.741,411.709) scale(3.4602)"><path d="M3.515625 -0.1953125Q4.052734375 -0.9765625 4.736328125 -2.5146484375Q5.419921875 -4.052734375 5.810546875 -6.396484375Q6.34765625 -9.814453125 7.0068359375 -14.0869140625Q7.666015625 -18.359375 8.3740234375 -23.046875Q9.08203125 -27.734375 9.7900390625 -32.6416015625Q10.498046875 -37.548828125 11.1572265625 -42.3095703125Q11.81640625 -47.0703125 12.4267578125 -51.4892578125Q13.037109375 -55.908203125 13.525390625 -59.5703125Q14.013671875 -63.232421875 14.3310546875 -65.9423828125Q14.6484375 -68.65234375 14.794921875 -70.01953125H20.99609375L51.708984375 -12.59765625L82.177734375 -70.01953125H86.81640625L94.82421875 -12.01171875Q95.166015625 -9.27734375 95.556640625 -7.32421875Q95.947265625 -5.37109375 96.337890625 -3.9794921875Q96.728515625 -2.587890625 97.0947265625 -1.6845703125Q97.4609375 -0.78125 97.802734375 -0.1953125V0.0H85.498046875V-0.1953125Q85.7421875 -0.732421875 85.9619140625 -1.953125Q86.181640625 -3.173828125 86.181640625 -4.8828125Q86.181640625 -5.517578125 86.1328125 -6.1767578125Q86.083984375 -6.8359375 85.986328125 -7.6171875L79.78515625 -54.39453125L50.9765625 -0.1953125L47.607421875 -0.5859375L18.603515625 -54.8828125Q16.89453125 -43.310546875 15.625 -33.49609375Q15.087890625 -29.296875 14.55078125 -25.1220703125Q14.013671875 -20.947265625 13.5986328125 -17.333984375Q13.18359375 -13.720703125 12.939453125 -10.9619140625Q12.6953125 -8.203125 12.6953125 -6.884765625Q12.6953125 -5.224609375 12.79296875 -3.955078125Q12.890625 -2.685546875 12.98828125 -1.806640625Q13.134765625 -0.78125 13.28125 0.0H3.515625Z" fill="url(#pg)"/><path d="M 17.5 -80.9 L 22.1 -74.5 L 17.5 -68.1 L 12.9 -74.5 Z" fill="#E2B45C"/><path d="M 84.5 -80.9 L 89.1 -74.5 L 84.5 -68.1 L 79.9 -74.5 Z" fill="#E2B45C"/><path d="M 50 -90.5 L 56.0 -81.5 L 50 -72.5 L 44.0 -81.5 Z" fill="#E2B45C"/></g></g><rect x="850" y="196" width="312" height="150" rx="12" fill="#14121E"/><text x="866" y="222" fill="#7A7596" font-family="Geist,Inter,system-ui,sans-serif" font-size="11" font-weight="600" text-anchor="start" letter-spacing="0.2">REDUCTION</text><g transform="translate(872,236) scale(0.1250)"><rect width="512" height="512" rx="115.2" ry="115.2" fill="#0B0A12"/><rect x="0.75" y="0.75" width="510.5" height="510.5" rx="114.45" ry="114.45" fill="none" stroke="#241F38" stroke-width="1.5"/><g transform="translate(80.741,411.709) scale(3.4602)"><path d="M3.515625 -0.1953125Q4.052734375 -0.9765625 4.736328125 -2.5146484375Q5.419921875 -4.052734375 5.810546875 -6.396484375Q6.34765625 -9.814453125 7.0068359375 -14.0869140625Q7.666015625 -18.359375 8.3740234375 -23.046875Q9.08203125 -27.734375 9.7900390625 -32.6416015625Q10.498046875 -37.548828125 11.1572265625 -42.3095703125Q11.81640625 -47.0703125 12.4267578125 -51.4892578125Q13.037109375 -55.908203125 13.525390625 -59.5703125Q14.013671875 -63.232421875 14.3310546875 -65.9423828125Q14.6484375 -68.65234375 14.794921875 -70.01953125H20.99609375L51.708984375 -12.59765625L82.177734375 -70.01953125H86.81640625L94.82421875 -12.01171875Q95.166015625 -9.27734375 95.556640625 -7.32421875Q95.947265625 -5.37109375 96.337890625 -3.9794921875Q96.728515625 -2.587890625 97.0947265625 -1.6845703125Q97.4609375 -0.78125 97.802734375 -0.1953125V0.0H85.498046875V-0.1953125Q85.7421875 -0.732421875 85.9619140625 -1.953125Q86.181640625 -3.173828125 86.181640625 -4.8828125Q86.181640625 -5.517578125 86.1328125 -6.1767578125Q86.083984375 -6.8359375 85.986328125 -7.6171875L79.78515625 -54.39453125L50.9765625 -0.1953125L47.607421875 -0.5859375L18.603515625 -54.8828125Q16.89453125 -43.310546875 15.625 -33.49609375Q15.087890625 -29.296875 14.55078125 -25.1220703125Q14.013671875 -20.947265625 13.5986328125 -17.333984375Q13.18359375 -13.720703125 12.939453125 -10.9619140625Q12.6953125 -8.203125 12.6953125 -6.884765625Q12.6953125 -5.224609375 12.79296875 -3.955078125Q12.890625 -2.685546875 12.98828125 -1.806640625Q13.134765625 -0.78125 13.28125 0.0H3.515625Z" fill="url(#pg)"/><path d="M 17.5 -80.9 L 22.1 -74.5 L 17.5 -68.1 L 12.9 -74.5 Z" fill="#E2B45C"/><path d="M 84.5 -80.9 L 89.1 -74.5 L 84.5 -68.1 L 79.9 -74.5 Z" fill="#E2B45C"/><path d="M 50 -90.5 L 56.0 -81.5 L 50 -72.5 L 44.0 -81.5 Z" fill="#E2B45C"/></g></g><text x="904.0" y="318" fill="#7A7596" font-family="Geist,Inter,system-ui,sans-serif" font-size="10" font-weight="400" text-anchor="middle" letter-spacing="0.2">64</text><g transform="translate(958,252) scale(0.0938)"><rect width="512" height="512" rx="115.2" ry="115.2" fill="#0B0A12"/><rect x="0.75" y="0.75" width="510.5" height="510.5" rx="114.45" ry="114.45" fill="none" stroke="#241F38" stroke-width="1.5"/><g transform="translate(80.741,411.709) scale(3.4602)"><path d="M3.515625 -0.1953125Q4.052734375 -0.9765625 4.736328125 -2.5146484375Q5.419921875 -4.052734375 5.810546875 -6.396484375Q6.34765625 -9.814453125 7.0068359375 -14.0869140625Q7.666015625 -18.359375 8.3740234375 -23.046875Q9.08203125 -27.734375 9.7900390625 -32.6416015625Q10.498046875 -37.548828125 11.1572265625 -42.3095703125Q11.81640625 -47.0703125 12.4267578125 -51.4892578125Q13.037109375 -55.908203125 13.525390625 -59.5703125Q14.013671875 -63.232421875 14.3310546875 -65.9423828125Q14.6484375 -68.65234375 14.794921875 -70.01953125H20.99609375L51.708984375 -12.59765625L82.177734375 -70.01953125H86.81640625L94.82421875 -12.01171875Q95.166015625 -9.27734375 95.556640625 -7.32421875Q95.947265625 -5.37109375 96.337890625 -3.9794921875Q96.728515625 -2.587890625 97.0947265625 -1.6845703125Q97.4609375 -0.78125 97.802734375 -0.1953125V0.0H85.498046875V-0.1953125Q85.7421875 -0.732421875 85.9619140625 -1.953125Q86.181640625 -3.173828125 86.181640625 -4.8828125Q86.181640625 -5.517578125 86.1328125 -6.1767578125Q86.083984375 -6.8359375 85.986328125 -7.6171875L79.78515625 -54.39453125L50.9765625 -0.1953125L47.607421875 -0.5859375L18.603515625 -54.8828125Q16.89453125 -43.310546875 15.625 -33.49609375Q15.087890625 -29.296875 14.55078125 -25.1220703125Q14.013671875 -20.947265625 13.5986328125 -17.333984375Q13.18359375 -13.720703125 12.939453125 -10.9619140625Q12.6953125 -8.203125 12.6953125 -6.884765625Q12.6953125 -5.224609375 12.79296875 -3.955078125Q12.890625 -2.685546875 12.98828125 -1.806640625Q13.134765625 -0.78125 13.28125 0.0H3.515625Z" fill="url(#pg)"/><path d="M 17.5 -80.9 L 22.1 -74.5 L 17.5 -68.1 L 12.9 -74.5 Z" fill="#E2B45C"/><path d="M 84.5 -80.9 L 89.1 -74.5 L 84.5 -68.1 L 79.9 -74.5 Z" fill="#E2B45C"/><path d="M 50 -90.5 L 56.0 -81.5 L 50 -72.5 L 44.0 -81.5 Z" fill="#E2B45C"/></g></g><text x="982.0" y="318" fill="#7A7596" font-family="Geist,Inter,system-ui,sans-serif" font-size="10" font-weight="400" text-anchor="middle" letter-spacing="0.2">48</text><g transform="translate(1028,268) scale(0.0625)"><rect width="512" height="512" rx="115.2" ry="115.2" fill="#0B0A12"/><rect x="0.75" y="0.75" width="510.5" height="510.5" rx="114.45" ry="114.45" fill="none" stroke="#241F38" stroke-width="1.5"/><g transform="translate(80.741,411.709) scale(3.4602)"><path d="M3.515625 -0.1953125Q4.052734375 -0.9765625 4.736328125 -2.5146484375Q5.419921875 -4.052734375 5.810546875 -6.396484375Q6.34765625 -9.814453125 7.0068359375 -14.0869140625Q7.666015625 -18.359375 8.3740234375 -23.046875Q9.08203125 -27.734375 9.7900390625 -32.6416015625Q10.498046875 -37.548828125 11.1572265625 -42.3095703125Q11.81640625 -47.0703125 12.4267578125 -51.4892578125Q13.037109375 -55.908203125 13.525390625 -59.5703125Q14.013671875 -63.232421875 14.3310546875 -65.9423828125Q14.6484375 -68.65234375 14.794921875 -70.01953125H20.99609375L51.708984375 -12.59765625L82.177734375 -70.01953125H86.81640625L94.82421875 -12.01171875Q95.166015625 -9.27734375 95.556640625 -7.32421875Q95.947265625 -5.37109375 96.337890625 -3.9794921875Q96.728515625 -2.587890625 97.0947265625 -1.6845703125Q97.4609375 -0.78125 97.802734375 -0.1953125V0.0H85.498046875V-0.1953125Q85.7421875 -0.732421875 85.9619140625 -1.953125Q86.181640625 -3.173828125 86.181640625 -4.8828125Q86.181640625 -5.517578125 86.1328125 -6.1767578125Q86.083984375 -6.8359375 85.986328125 -7.6171875L79.78515625 -54.39453125L50.9765625 -0.1953125L47.607421875 -0.5859375L18.603515625 -54.8828125Q16.89453125 -43.310546875 15.625 -33.49609375Q15.087890625 -29.296875 14.55078125 -25.1220703125Q14.013671875 -20.947265625 13.5986328125 -17.333984375Q13.18359375 -13.720703125 12.939453125 -10.9619140625Q12.6953125 -8.203125 12.6953125 -6.884765625Q12.6953125 -5.224609375 12.79296875 -3.955078125Q12.890625 -2.685546875 12.98828125 -1.806640625Q13.134765625 -0.78125 13.28125 0.0H3.515625Z" fill="url(#pg)"/><path d="M 17.5 -80.9 L 22.1 -74.5 L 17.5 -68.1 L 12.9 -74.5 Z" fill="#E2B45C"/><path d="M 84.5 -80.9 L 89.1 -74.5 L 84.5 -68.1 L 79.9 -74.5 Z" fill="#E2B45C"/><path d="M 50 -90.5 L 56.0 -81.5 L 50 -72.5 L 44.0 -81.5 Z" fill="#E2B45C"/></g></g><text x="1044.0" y="318" fill="#7A7596" font-family="Geist,Inter,system-ui,sans-serif" font-size="10" font-weight="400" text-anchor="middle" letter-spacing="0.2">32</text><g transform="translate(1082,284) scale(0.0312)"><rect width="512" height="512" rx="115.2" ry="115.2" fill="#0B0A12"/><rect x="0.75" y="0.75" width="510.5" height="510.5" rx="114.45" ry="114.45" fill="none" stroke="#241F38" stroke-width="1.5"/><g transform="translate(80.741,411.709) scale(3.4602)"><path d="M3.515625 -0.1953125Q4.052734375 -0.9765625 4.736328125 -2.5146484375Q5.419921875 -4.052734375 5.810546875 -6.396484375Q6.34765625 -9.814453125 7.0068359375 -14.0869140625Q7.666015625 -18.359375 8.3740234375 -23.046875Q9.08203125 -27.734375 9.7900390625 -32.6416015625Q10.498046875 -37.548828125 11.1572265625 -42.3095703125Q11.81640625 -47.0703125 12.4267578125 -51.4892578125Q13.037109375 -55.908203125 13.525390625 -59.5703125Q14.013671875 -63.232421875 14.3310546875 -65.9423828125Q14.6484375 -68.65234375 14.794921875 -70.01953125H20.99609375L51.708984375 -12.59765625L82.177734375 -70.01953125H86.81640625L94.82421875 -12.01171875Q95.166015625 -9.27734375 95.556640625 -7.32421875Q95.947265625 -5.37109375 96.337890625 -3.9794921875Q96.728515625 -2.587890625 97.0947265625 -1.6845703125Q97.4609375 -0.78125 97.802734375 -0.1953125V0.0H85.498046875V-0.1953125Q85.7421875 -0.732421875 85.9619140625 -1.953125Q86.181640625 -3.173828125 86.181640625 -4.8828125Q86.181640625 -5.517578125 86.1328125 -6.1767578125Q86.083984375 -6.8359375 85.986328125 -7.6171875L79.78515625 -54.39453125L50.9765625 -0.1953125L47.607421875 -0.5859375L18.603515625 -54.8828125Q16.89453125 -43.310546875 15.625 -33.49609375Q15.087890625 -29.296875 14.55078125 -25.1220703125Q14.013671875 -20.947265625 13.5986328125 -17.333984375Q13.18359375 -13.720703125 12.939453125 -10.9619140625Q12.6953125 -8.203125 12.6953125 -6.884765625Q12.6953125 -5.224609375 12.79296875 -3.955078125Q12.890625 -2.685546875 12.98828125 -1.806640625Q13.134765625 -0.78125 13.28125 0.0H3.515625Z" fill="url(#pg)"/><path d="M 17.5 -80.9 L 22.1 -74.5 L 17.5 -68.1 L 12.9 -74.5 Z" fill="#E2B45C"/><path d="M 84.5 -80.9 L 89.1 -74.5 L 84.5 -68.1 L 79.9 -74.5 Z" fill="#E2B45C"/><path d="M 50 -90.5 L 56.0 -81.5 L 50 -72.5 L 44.0 -81.5 Z" fill="#E2B45C"/></g></g><text x="1090.0" y="318" fill="#7A7596" font-family="Geist,Inter,system-ui,sans-serif" font-size="10" font-weight="400" text-anchor="middle" letter-spacing="0.2">16</text><text x="866" y="344" fill="#56516E" font-family="Geist,Inter,system-ui,sans-serif" font-size="11" font-weight="400" text-anchor="start" letter-spacing="0.2">Silhouette holds to 16px (favicon / taskbar / in-game)</text><g transform="translate(700,372) scale(0.6000)"><g transform="translate(5.073,89.916) scale(0.8870)"><path d="M3.515625 -0.1953125Q4.052734375 -0.9765625 4.736328125 -2.5146484375Q5.419921875 -4.052734375 5.810546875 -6.396484375Q6.34765625 -9.814453125 7.0068359375 -14.0869140625Q7.666015625 -18.359375 8.3740234375 -23.046875Q9.08203125 -27.734375 9.7900390625 -32.6416015625Q10.498046875 -37.548828125 11.1572265625 -42.3095703125Q11.81640625 -47.0703125 12.4267578125 -51.4892578125Q13.037109375 -55.908203125 13.525390625 -59.5703125Q14.013671875 -63.232421875 14.3310546875 -65.9423828125Q14.6484375 -68.65234375 14.794921875 -70.01953125H20.99609375L51.708984375 -12.59765625L82.177734375 -70.01953125H86.81640625L94.82421875 -12.01171875Q95.166015625 -9.27734375 95.556640625 -7.32421875Q95.947265625 -5.37109375 96.337890625 -3.9794921875Q96.728515625 -2.587890625 97.0947265625 -1.6845703125Q97.4609375 -0.78125 97.802734375 -0.1953125V0.0H85.498046875V-0.1953125Q85.7421875 -0.732421875 85.9619140625 -1.953125Q86.181640625 -3.173828125 86.181640625 -4.8828125Q86.181640625 -5.517578125 86.1328125 -6.1767578125Q86.083984375 -6.8359375 85.986328125 -7.6171875L79.78515625 -54.39453125L50.9765625 -0.1953125L47.607421875 -0.5859375L18.603515625 -54.8828125Q16.89453125 -43.310546875 15.625 -33.49609375Q15.087890625 -29.296875 14.55078125 -25.1220703125Q14.013671875 -20.947265625 13.5986328125 -17.333984375Q13.18359375 -13.720703125 12.939453125 -10.9619140625Q12.6953125 -8.203125 12.6953125 -6.884765625Q12.6953125 -5.224609375 12.79296875 -3.955078125Q12.890625 -2.685546875 12.98828125 -1.806640625Q13.134765625 -0.78125 13.28125 0.0H3.515625Z" fill="url(#pg)"/><path d="M 17.5 -80.9 L 22.1 -74.5 L 17.5 -68.1 L 12.9 -74.5 Z" fill="#E2B45C"/><path d="M 84.5 -80.9 L 89.1 -74.5 L 84.5 -68.1 L 79.9 -74.5 Z" fill="#E2B45C"/><path d="M 50 -90.5 L 56.0 -81.5 L 50 -72.5 L 44.0 -81.5 Z" fill="#E2B45C"/></g></g><text x="772" y="392" fill="#9A95B4" font-family="Geist,Inter,system-ui,sans-serif" font-size="12" font-weight="600" text-anchor="start" letter-spacing="0.2">Mark only</text><text x="772" y="410" fill="#56516E" font-family="Geist,Inter,system-ui,sans-serif" font-size="11" font-weight="400" text-anchor="start" letter-spacing="0.2">(transparent, flexible placement)</text><line x1="56" y1="486" x2="1184" y2="486" stroke="#1B1828" stroke-width="1"/><text x="56" y="516" fill="#9A95B4" font-family="Geist,Inter,system-ui,sans-serif" font-size="13" font-weight="600" text-anchor="start" letter-spacing="0.2">MONOCHROME</text><text x="178" y="516" fill="#56516E" font-family="Geist,Inter,system-ui,sans-serif" font-size="12" font-weight="400" text-anchor="start" letter-spacing="0.2">single-colour · pure white on dark, pure black on light</text><rect x="56" y="532" width="500" height="120" rx="16" fill="#0B0A12"/><rect x="56.75" y="532.75" width="498.5" height="118.5" rx="15.25" fill="none" stroke="#221E34" stroke-width="1.5"/><g transform="translate(96.0,524.4) scale(0.7759)"><g transform="translate(36.000,133.200) scale(1.0286)"><path d="M3.515625 -0.1953125Q4.052734375 -0.9765625 4.736328125 -2.5146484375Q5.419921875 -4.052734375 5.810546875 -6.396484375Q6.34765625 -9.814453125 7.0068359375 -14.0869140625Q7.666015625 -18.359375 8.3740234375 -23.046875Q9.08203125 -27.734375 9.7900390625 -32.6416015625Q10.498046875 -37.548828125 11.1572265625 -42.3095703125Q11.81640625 -47.0703125 12.4267578125 -51.4892578125Q13.037109375 -55.908203125 13.525390625 -59.5703125Q14.013671875 -63.232421875 14.3310546875 -65.9423828125Q14.6484375 -68.65234375 14.794921875 -70.01953125H20.99609375L51.708984375 -12.59765625L82.177734375 -70.01953125H86.81640625L94.82421875 -12.01171875Q95.166015625 -9.27734375 95.556640625 -7.32421875Q95.947265625 -5.37109375 96.337890625 -3.9794921875Q96.728515625 -2.587890625 97.0947265625 -1.6845703125Q97.4609375 -0.78125 97.802734375 -0.1953125V0.0H85.498046875V-0.1953125Q85.7421875 -0.732421875 85.9619140625 -1.953125Q86.181640625 -3.173828125 86.181640625 -4.8828125Q86.181640625 -5.517578125 86.1328125 -6.1767578125Q86.083984375 -6.8359375 85.986328125 -7.6171875L79.78515625 -54.39453125L50.9765625 -0.1953125L47.607421875 -0.5859375L18.603515625 -54.8828125Q16.89453125 -43.310546875 15.625 -33.49609375Q15.087890625 -29.296875 14.55078125 -25.1220703125Q14.013671875 -20.947265625 13.5986328125 -17.333984375Q13.18359375 -13.720703125 12.939453125 -10.9619140625Q12.6953125 -8.203125 12.6953125 -6.884765625Q12.6953125 -5.224609375 12.79296875 -3.955078125Q12.890625 -2.685546875 12.98828125 -1.806640625Q13.134765625 -0.78125 13.28125 0.0H3.515625Z" fill="#FFFFFF"/><path d="M 17.5 -80.9 L 22.1 -74.5 L 17.5 -68.1 L 12.9 -74.5 Z" fill="#FFFFFF"/><path d="M 84.5 -80.9 L 89.1 -74.5 L 84.5 -68.1 L 79.9 -74.5 Z" fill="#FFFFFF"/><path d="M 50 -90.5 L 56.0 -81.5 L 50 -72.5 L 44.0 -81.5 Z" fill="#FFFFFF"/></g><g transform="translate(161.794,133.200) scale(1.0286)"><path d="M3.515625 -0.1953125Q4.052734375 -0.9765625 4.736328125 -2.5146484375Q5.419921875 -4.052734375 5.810546875 -6.396484375Q6.34765625 -9.814453125 7.0068359375 -14.0869140625Q7.666015625 -18.359375 8.3740234375 -23.046875Q9.08203125 -27.734375 9.7900390625 -32.6416015625Q10.498046875 -37.548828125 11.1572265625 -42.3095703125Q11.81640625 -47.0703125 12.4267578125 -51.4892578125Q13.037109375 -55.908203125 13.525390625 -59.5703125Q14.013671875 -63.232421875 14.3310546875 -65.9423828125Q14.6484375 -68.65234375 14.794921875 -70.01953125H20.99609375L51.708984375 -12.59765625L82.177734375 -70.01953125H86.81640625L94.82421875 -12.01171875Q95.166015625 -9.27734375 95.556640625 -7.32421875Q95.947265625 -5.37109375 96.337890625 -3.9794921875Q96.728515625 -2.587890625 97.0947265625 -1.6845703125Q97.4609375 -0.78125 97.802734375 -0.1953125V0.0H85.498046875V-0.1953125Q85.7421875 -0.732421875 85.9619140625 -1.953125Q86.181640625 -3.173828125 86.181640625 -4.8828125Q86.181640625 -5.517578125 86.1328125 -6.1767578125Q86.083984375 -6.8359375 85.986328125 -7.6171875L79.78515625 -54.39453125L50.9765625 -0.1953125L47.607421875 -0.5859375L18.603515625 -54.8828125Q16.89453125 -43.310546875 15.625 -33.49609375Q15.087890625 -29.296875 14.55078125 -25.1220703125Q14.013671875 -20.947265625 13.5986328125 -17.333984375Q13.18359375 -13.720703125 12.939453125 -10.9619140625Q12.6953125 -8.203125 12.6953125 -6.884765625Q12.6953125 -5.224609375 12.79296875 -3.955078125Q12.890625 -2.685546875 12.98828125 -1.806640625Q13.134765625 -0.78125 13.28125 0.0H3.515625ZM111.419921875 -14.404296875Q111.419921875 -18.26171875 113.0068359375 -21.09375Q114.59375 -23.92578125 117.23046875 -25.927734375Q119.8671875 -27.9296875 123.236328125 -29.1748046875Q126.60546875 -30.419921875 130.21875 -31.1279296875Q133.83203125 -31.8359375 137.34765625 -32.1044921875Q140.86328125 -32.373046875 143.79296875 -32.421875V-34.912109375Q143.79296875 -38.134765625 142.962890625 -40.478515625Q142.1328125 -42.822265625 140.619140625 -44.3603515625Q139.10546875 -45.8984375 136.9814453125 -46.6552734375Q134.857421875 -47.412109375 132.318359375 -47.412109375Q130.560546875 -47.412109375 128.8515625 -47.119140625Q127.142578125 -46.826171875 125.3115234375 -46.142578125Q123.48046875 -45.458984375 121.4541015625 -44.287109375Q119.427734375 -43.115234375 117.083984375 -41.30859375L116.595703125 -41.6015625L119.916015625 -48.486328125Q121.52734375 -49.21875 123.08984375 -49.6826171875Q124.65234375 -50.146484375 126.263671875 -50.439453125Q127.875 -50.732421875 129.5595703125 -50.8544921875Q131.244140625 -50.9765625 133.099609375 -50.9765625Q138.2265625 -50.9765625 141.8642578125 -49.7314453125Q145.501953125 -48.486328125 147.8212890625 -46.3134765625Q150.140625 -44.140625 151.21484375 -41.2353515625Q152.2890625 -38.330078125 152.2890625 -35.009765625V-19.091796875Q152.2890625 -14.94140625 152.4111328125 -11.8408203125Q152.533203125 -8.740234375 152.7041015625 -6.494140625Q152.875 -4.248046875 153.1435546875 -2.734375Q153.412109375 -1.220703125 153.705078125 -0.1953125V0.0H142.9140625V-0.1953125Q143.158203125 -0.9765625 143.2802734375 -1.953125Q143.40234375 -2.9296875 143.5 -4.296875Q142.474609375 -3.41796875 141.0830078125 -2.490234375Q139.69140625 -1.5625 137.9091796875 -0.8056640625Q136.126953125 -0.048828125 133.9541015625 0.4150390625Q131.78125 0.87890625 129.193359375 0.87890625Q120.697265625 0.87890625 116.05859375 -3.1005859375Q111.419921875 -7.080078125 111.419921875 -14.404296875ZM143.79296875 -28.61328125Q139.349609375 -28.564453125 135.248046875 -28.1005859375Q131.146484375 -27.63671875 127.9970703125 -26.171875Q124.84765625 -24.70703125 122.9677734375 -21.9970703125Q121.087890625 -19.287109375 121.087890625 -14.794921875Q121.087890625 -9.033203125 123.96875 -6.005859375Q126.849609375 -2.978515625 131.927734375 -2.978515625Q134.271484375 -2.978515625 136.2001953125 -3.6376953125Q138.12890625 -4.296875 139.6181640625 -5.2978515625Q141.107421875 -6.298828125 142.1328125 -7.4951171875Q143.158203125 -8.69140625 143.6953125 -9.814453125Q143.79296875 -11.669921875 143.79296875 -13.9404296875Q143.79296875 -16.2109375 143.79296875 -19.091796875ZM194.91015625 0.87890625Q189.490234375 0.87890625 184.75390625 -0.830078125Q180.017578125 -2.5390625 176.501953125 -5.8349609375Q172.986328125 -9.130859375 170.9599609375 -13.9892578125Q168.93359375 -18.84765625 168.93359375 -25.09765625Q168.93359375 -30.615234375 170.7890625 -35.3271484375Q172.64453125 -40.0390625 175.916015625 -43.505859375Q179.1875 -46.97265625 183.5576171875 -48.92578125Q187.927734375 -50.87890625 193.005859375 -50.87890625Q198.03515625 -50.87890625 202.33203125 -49.1455078125Q206.62890625 -47.412109375 209.7783203125 -44.1162109375Q212.927734375 -40.8203125 214.7587890625 -35.9619140625Q216.58984375 -31.103515625 216.736328125 -24.90234375Q211.21875 -25.0 205.701171875 -25.048828125Q200.18359375 -25.09765625 194.2265625 -25.09765625Q189.978515625 -25.09765625 185.9501953125 -25.048828125Q181.921875 -25.0 178.69921875 -24.90234375Q178.9921875 -19.82421875 180.2861328125 -15.72265625Q181.580078125 -11.62109375 183.8505859375 -8.7158203125Q186.12109375 -5.810546875 189.3681640625 -4.248046875Q192.615234375 -2.685546875 196.716796875 -2.685546875Q199.548828125 -2.685546875 202.0634765625 -3.3447265625Q204.578125 -4.00390625 206.62890625 -5.17578125Q208.6796875 -6.34765625 210.291015625 -7.9345703125Q211.90234375 -9.521484375 213.025390625 -11.376953125L213.611328125 -11.083984375L209.998046875 -2.392578125Q207.361328125 -1.025390625 203.69921875 -0.0732421875Q200.037109375 0.87890625 194.91015625 0.87890625ZM188.416015625 -28.90625Q193.298828125 -28.90625 198.2060546875 -28.9306640625Q203.11328125 -28.955078125 207.1171875 -29.1015625Q206.677734375 -33.349609375 205.45703125 -36.71875Q204.236328125 -40.087890625 202.33203125 -42.431640625Q200.427734375 -44.775390625 197.83984375 -46.044921875Q195.251953125 -47.314453125 192.126953125 -47.314453125Q189.294921875 -47.314453125 186.9267578125 -46.0693359375Q184.55859375 -44.82421875 182.80078125 -42.48046875Q181.04296875 -40.13671875 179.96875 -36.7431640625Q178.89453125 -33.349609375 178.69921875 -29.00390625Q180.896484375 -28.90625 183.337890625 -28.90625Q185.779296875 -28.90625 188.416015625 -28.90625ZM237.82421875 -50.0V-49.8046875Q237.7265625 -49.560546875 237.677734375 -49.072265625Q237.62890625 -48.583984375 237.62890625 -48.193359375Q237.62890625 -46.6796875 238.068359375 -44.8486328125Q238.5078125 -43.017578125 239.630859375 -40.283203125L251.30078125 -12.5L263.1171875 -39.892578125Q263.849609375 -41.69921875 264.6796875 -43.84765625Q265.509765625 -45.99609375 265.509765625 -48.193359375Q265.509765625 -48.828125 265.412109375 -49.2431640625Q265.314453125 -49.658203125 265.216796875 -49.8046875V-50.0H274.005859375V-49.8046875Q273.126953125 -48.876953125 271.7841796875 -46.5087890625Q270.44140625 -44.140625 268.927734375 -40.576171875L250.91015625 0.68359375H248.029296875L231.330078125 -38.18359375Q230.451171875 -40.33203125 229.4501953125 -42.3095703125Q228.44921875 -44.287109375 227.5458984375 -45.849609375Q226.642578125 -47.412109375 225.958984375 -48.4619140625Q225.275390625 -49.51171875 225.03125 -49.8046875V-50.0ZM308.716796875 0.87890625Q303.296875 0.87890625 298.560546875 -0.830078125Q293.82421875 -2.5390625 290.30859375 -5.8349609375Q286.79296875 -9.130859375 284.7666015625 -13.9892578125Q282.740234375 -18.84765625 282.740234375 -25.09765625Q282.740234375 -30.615234375 284.595703125 -35.3271484375Q286.451171875 -40.0390625 289.72265625 -43.505859375Q292.994140625 -46.97265625 297.3642578125 -48.92578125Q301.734375 -50.87890625 306.8125 -50.87890625Q311.841796875 -50.87890625 316.138671875 -49.1455078125Q320.435546875 -47.412109375 323.5849609375 -44.1162109375Q326.734375 -40.8203125 328.5654296875 -35.9619140625Q330.396484375 -31.103515625 330.54296875 -24.90234375Q325.025390625 -25.0 319.5078125 -25.048828125Q313.990234375 -25.09765625 308.033203125 -25.09765625Q303.78515625 -25.09765625 299.7568359375 -25.048828125Q295.728515625 -25.0 292.505859375 -24.90234375Q292.798828125 -19.82421875 294.0927734375 -15.72265625Q295.38671875 -11.62109375 297.6572265625 -8.7158203125Q299.927734375 -5.810546875 303.1748046875 -4.248046875Q306.421875 -2.685546875 310.5234375 -2.685546875Q313.35546875 -2.685546875 315.8701171875 -3.3447265625Q318.384765625 -4.00390625 320.435546875 -5.17578125Q322.486328125 -6.34765625 324.09765625 -7.9345703125Q325.708984375 -9.521484375 326.83203125 -11.376953125L327.41796875 -11.083984375L323.8046875 -2.392578125Q321.16796875 -1.025390625 317.505859375 -0.0732421875Q313.84375 0.87890625 308.716796875 0.87890625ZM302.22265625 -28.90625Q307.10546875 -28.90625 312.0126953125 -28.9306640625Q316.919921875 -28.955078125 320.923828125 -29.1015625Q320.484375 -33.349609375 319.263671875 -36.71875Q318.04296875 -40.087890625 316.138671875 -42.431640625Q314.234375 -44.775390625 311.646484375 -46.044921875Q309.05859375 -47.314453125 305.93359375 -47.314453125Q303.1015625 -47.314453125 300.7333984375 -46.0693359375Q298.365234375 -44.82421875 296.607421875 -42.48046875Q294.849609375 -40.13671875 293.775390625 -36.7431640625Q292.701171875 -33.349609375 292.505859375 -29.00390625Q294.703125 -28.90625 297.14453125 -28.90625Q299.5859375 -28.90625 302.22265625 -28.90625Z" fill="#FFFFFF"/></g></g><rect x="628" y="532" width="500" height="120" rx="16" fill="#FFFFFF"/><rect x="628.75" y="532.75" width="498.5" height="118.5" rx="15.25" fill="none" stroke="#E2DEEC" stroke-width="1.5"/><g transform="translate(668.0,524.4) scale(0.7759)"><g transform="translate(36.000,133.200) scale(1.0286)"><path d="M3.515625 -0.1953125Q4.052734375 -0.9765625 4.736328125 -2.5146484375Q5.419921875 -4.052734375 5.810546875 -6.396484375Q6.34765625 -9.814453125 7.0068359375 -14.0869140625Q7.666015625 -18.359375 8.3740234375 -23.046875Q9.08203125 -27.734375 9.7900390625 -32.6416015625Q10.498046875 -37.548828125 11.1572265625 -42.3095703125Q11.81640625 -47.0703125 12.4267578125 -51.4892578125Q13.037109375 -55.908203125 13.525390625 -59.5703125Q14.013671875 -63.232421875 14.3310546875 -65.9423828125Q14.6484375 -68.65234375 14.794921875 -70.01953125H20.99609375L51.708984375 -12.59765625L82.177734375 -70.01953125H86.81640625L94.82421875 -12.01171875Q95.166015625 -9.27734375 95.556640625 -7.32421875Q95.947265625 -5.37109375 96.337890625 -3.9794921875Q96.728515625 -2.587890625 97.0947265625 -1.6845703125Q97.4609375 -0.78125 97.802734375 -0.1953125V0.0H85.498046875V-0.1953125Q85.7421875 -0.732421875 85.9619140625 -1.953125Q86.181640625 -3.173828125 86.181640625 -4.8828125Q86.181640625 -5.517578125 86.1328125 -6.1767578125Q86.083984375 -6.8359375 85.986328125 -7.6171875L79.78515625 -54.39453125L50.9765625 -0.1953125L47.607421875 -0.5859375L18.603515625 -54.8828125Q16.89453125 -43.310546875 15.625 -33.49609375Q15.087890625 -29.296875 14.55078125 -25.1220703125Q14.013671875 -20.947265625 13.5986328125 -17.333984375Q13.18359375 -13.720703125 12.939453125 -10.9619140625Q12.6953125 -8.203125 12.6953125 -6.884765625Q12.6953125 -5.224609375 12.79296875 -3.955078125Q12.890625 -2.685546875 12.98828125 -1.806640625Q13.134765625 -0.78125 13.28125 0.0H3.515625Z" fill="#0B0A12"/><path d="M 17.5 -80.9 L 22.1 -74.5 L 17.5 -68.1 L 12.9 -74.5 Z" fill="#0B0A12"/><path d="M 84.5 -80.9 L 89.1 -74.5 L 84.5 -68.1 L 79.9 -74.5 Z" fill="#0B0A12"/><path d="M 50 -90.5 L 56.0 -81.5 L 50 -72.5 L 44.0 -81.5 Z" fill="#0B0A12"/></g><g transform="translate(161.794,133.200) scale(1.0286)"><path d="M3.515625 -0.1953125Q4.052734375 -0.9765625 4.736328125 -2.5146484375Q5.419921875 -4.052734375 5.810546875 -6.396484375Q6.34765625 -9.814453125 7.0068359375 -14.0869140625Q7.666015625 -18.359375 8.3740234375 -23.046875Q9.08203125 -27.734375 9.7900390625 -32.6416015625Q10.498046875 -37.548828125 11.1572265625 -42.3095703125Q11.81640625 -47.0703125 12.4267578125 -51.4892578125Q13.037109375 -55.908203125 13.525390625 -59.5703125Q14.013671875 -63.232421875 14.3310546875 -65.9423828125Q14.6484375 -68.65234375 14.794921875 -70.01953125H20.99609375L51.708984375 -12.59765625L82.177734375 -70.01953125H86.81640625L94.82421875 -12.01171875Q95.166015625 -9.27734375 95.556640625 -7.32421875Q95.947265625 -5.37109375 96.337890625 -3.9794921875Q96.728515625 -2.587890625 97.0947265625 -1.6845703125Q97.4609375 -0.78125 97.802734375 -0.1953125V0.0H85.498046875V-0.1953125Q85.7421875 -0.732421875 85.9619140625 -1.953125Q86.181640625 -3.173828125 86.181640625 -4.8828125Q86.181640625 -5.517578125 86.1328125 -6.1767578125Q86.083984375 -6.8359375 85.986328125 -7.6171875L79.78515625 -54.39453125L50.9765625 -0.1953125L47.607421875 -0.5859375L18.603515625 -54.8828125Q16.89453125 -43.310546875 15.625 -33.49609375Q15.087890625 -29.296875 14.55078125 -25.1220703125Q14.013671875 -20.947265625 13.5986328125 -17.333984375Q13.18359375 -13.720703125 12.939453125 -10.9619140625Q12.6953125 -8.203125 12.6953125 -6.884765625Q12.6953125 -5.224609375 12.79296875 -3.955078125Q12.890625 -2.685546875 12.98828125 -1.806640625Q13.134765625 -0.78125 13.28125 0.0H3.515625ZM111.419921875 -14.404296875Q111.419921875 -18.26171875 113.0068359375 -21.09375Q114.59375 -23.92578125 117.23046875 -25.927734375Q119.8671875 -27.9296875 123.236328125 -29.1748046875Q126.60546875 -30.419921875 130.21875 -31.1279296875Q133.83203125 -31.8359375 137.34765625 -32.1044921875Q140.86328125 -32.373046875 143.79296875 -32.421875V-34.912109375Q143.79296875 -38.134765625 142.962890625 -40.478515625Q142.1328125 -42.822265625 140.619140625 -44.3603515625Q139.10546875 -45.8984375 136.9814453125 -46.6552734375Q134.857421875 -47.412109375 132.318359375 -47.412109375Q130.560546875 -47.412109375 128.8515625 -47.119140625Q127.142578125 -46.826171875 125.3115234375 -46.142578125Q123.48046875 -45.458984375 121.4541015625 -44.287109375Q119.427734375 -43.115234375 117.083984375 -41.30859375L116.595703125 -41.6015625L119.916015625 -48.486328125Q121.52734375 -49.21875 123.08984375 -49.6826171875Q124.65234375 -50.146484375 126.263671875 -50.439453125Q127.875 -50.732421875 129.5595703125 -50.8544921875Q131.244140625 -50.9765625 133.099609375 -50.9765625Q138.2265625 -50.9765625 141.8642578125 -49.7314453125Q145.501953125 -48.486328125 147.8212890625 -46.3134765625Q150.140625 -44.140625 151.21484375 -41.2353515625Q152.2890625 -38.330078125 152.2890625 -35.009765625V-19.091796875Q152.2890625 -14.94140625 152.4111328125 -11.8408203125Q152.533203125 -8.740234375 152.7041015625 -6.494140625Q152.875 -4.248046875 153.1435546875 -2.734375Q153.412109375 -1.220703125 153.705078125 -0.1953125V0.0H142.9140625V-0.1953125Q143.158203125 -0.9765625 143.2802734375 -1.953125Q143.40234375 -2.9296875 143.5 -4.296875Q142.474609375 -3.41796875 141.0830078125 -2.490234375Q139.69140625 -1.5625 137.9091796875 -0.8056640625Q136.126953125 -0.048828125 133.9541015625 0.4150390625Q131.78125 0.87890625 129.193359375 0.87890625Q120.697265625 0.87890625 116.05859375 -3.1005859375Q111.419921875 -7.080078125 111.419921875 -14.404296875ZM143.79296875 -28.61328125Q139.349609375 -28.564453125 135.248046875 -28.1005859375Q131.146484375 -27.63671875 127.9970703125 -26.171875Q124.84765625 -24.70703125 122.9677734375 -21.9970703125Q121.087890625 -19.287109375 121.087890625 -14.794921875Q121.087890625 -9.033203125 123.96875 -6.005859375Q126.849609375 -2.978515625 131.927734375 -2.978515625Q134.271484375 -2.978515625 136.2001953125 -3.6376953125Q138.12890625 -4.296875 139.6181640625 -5.2978515625Q141.107421875 -6.298828125 142.1328125 -7.4951171875Q143.158203125 -8.69140625 143.6953125 -9.814453125Q143.79296875 -11.669921875 143.79296875 -13.9404296875Q143.79296875 -16.2109375 143.79296875 -19.091796875ZM194.91015625 0.87890625Q189.490234375 0.87890625 184.75390625 -0.830078125Q180.017578125 -2.5390625 176.501953125 -5.8349609375Q172.986328125 -9.130859375 170.9599609375 -13.9892578125Q168.93359375 -18.84765625 168.93359375 -25.09765625Q168.93359375 -30.615234375 170.7890625 -35.3271484375Q172.64453125 -40.0390625 175.916015625 -43.505859375Q179.1875 -46.97265625 183.5576171875 -48.92578125Q187.927734375 -50.87890625 193.005859375 -50.87890625Q198.03515625 -50.87890625 202.33203125 -49.1455078125Q206.62890625 -47.412109375 209.7783203125 -44.1162109375Q212.927734375 -40.8203125 214.7587890625 -35.9619140625Q216.58984375 -31.103515625 216.736328125 -24.90234375Q211.21875 -25.0 205.701171875 -25.048828125Q200.18359375 -25.09765625 194.2265625 -25.09765625Q189.978515625 -25.09765625 185.9501953125 -25.048828125Q181.921875 -25.0 178.69921875 -24.90234375Q178.9921875 -19.82421875 180.2861328125 -15.72265625Q181.580078125 -11.62109375 183.8505859375 -8.7158203125Q186.12109375 -5.810546875 189.3681640625 -4.248046875Q192.615234375 -2.685546875 196.716796875 -2.685546875Q199.548828125 -2.685546875 202.0634765625 -3.3447265625Q204.578125 -4.00390625 206.62890625 -5.17578125Q208.6796875 -6.34765625 210.291015625 -7.9345703125Q211.90234375 -9.521484375 213.025390625 -11.376953125L213.611328125 -11.083984375L209.998046875 -2.392578125Q207.361328125 -1.025390625 203.69921875 -0.0732421875Q200.037109375 0.87890625 194.91015625 0.87890625ZM188.416015625 -28.90625Q193.298828125 -28.90625 198.2060546875 -28.9306640625Q203.11328125 -28.955078125 207.1171875 -29.1015625Q206.677734375 -33.349609375 205.45703125 -36.71875Q204.236328125 -40.087890625 202.33203125 -42.431640625Q200.427734375 -44.775390625 197.83984375 -46.044921875Q195.251953125 -47.314453125 192.126953125 -47.314453125Q189.294921875 -47.314453125 186.9267578125 -46.0693359375Q184.55859375 -44.82421875 182.80078125 -42.48046875Q181.04296875 -40.13671875 179.96875 -36.7431640625Q178.89453125 -33.349609375 178.69921875 -29.00390625Q180.896484375 -28.90625 183.337890625 -28.90625Q185.779296875 -28.90625 188.416015625 -28.90625ZM237.82421875 -50.0V-49.8046875Q237.7265625 -49.560546875 237.677734375 -49.072265625Q237.62890625 -48.583984375 237.62890625 -48.193359375Q237.62890625 -46.6796875 238.068359375 -44.8486328125Q238.5078125 -43.017578125 239.630859375 -40.283203125L251.30078125 -12.5L263.1171875 -39.892578125Q263.849609375 -41.69921875 264.6796875 -43.84765625Q265.509765625 -45.99609375 265.509765625 -48.193359375Q265.509765625 -48.828125 265.412109375 -49.2431640625Q265.314453125 -49.658203125 265.216796875 -49.8046875V-50.0H274.005859375V-49.8046875Q273.126953125 -48.876953125 271.7841796875 -46.5087890625Q270.44140625 -44.140625 268.927734375 -40.576171875L250.91015625 0.68359375H248.029296875L231.330078125 -38.18359375Q230.451171875 -40.33203125 229.4501953125 -42.3095703125Q228.44921875 -44.287109375 227.5458984375 -45.849609375Q226.642578125 -47.412109375 225.958984375 -48.4619140625Q225.275390625 -49.51171875 225.03125 -49.8046875V-50.0ZM308.716796875 0.87890625Q303.296875 0.87890625 298.560546875 -0.830078125Q293.82421875 -2.5390625 290.30859375 -5.8349609375Q286.79296875 -9.130859375 284.7666015625 -13.9892578125Q282.740234375 -18.84765625 282.740234375 -25.09765625Q282.740234375 -30.615234375 284.595703125 -35.3271484375Q286.451171875 -40.0390625 289.72265625 -43.505859375Q292.994140625 -46.97265625 297.3642578125 -48.92578125Q301.734375 -50.87890625 306.8125 -50.87890625Q311.841796875 -50.87890625 316.138671875 -49.1455078125Q320.435546875 -47.412109375 323.5849609375 -44.1162109375Q326.734375 -40.8203125 328.5654296875 -35.9619140625Q330.396484375 -31.103515625 330.54296875 -24.90234375Q325.025390625 -25.0 319.5078125 -25.048828125Q313.990234375 -25.09765625 308.033203125 -25.09765625Q303.78515625 -25.09765625 299.7568359375 -25.048828125Q295.728515625 -25.0 292.505859375 -24.90234375Q292.798828125 -19.82421875 294.0927734375 -15.72265625Q295.38671875 -11.62109375 297.6572265625 -8.7158203125Q299.927734375 -5.810546875 303.1748046875 -4.248046875Q306.421875 -2.685546875 310.5234375 -2.685546875Q313.35546875 -2.685546875 315.8701171875 -3.3447265625Q318.384765625 -4.00390625 320.435546875 -5.17578125Q322.486328125 -6.34765625 324.09765625 -7.9345703125Q325.708984375 -9.521484375 326.83203125 -11.376953125L327.41796875 -11.083984375L323.8046875 -2.392578125Q321.16796875 -1.025390625 317.505859375 -0.0732421875Q313.84375 0.87890625 308.716796875 0.87890625ZM302.22265625 -28.90625Q307.10546875 -28.90625 312.0126953125 -28.9306640625Q316.919921875 -28.955078125 320.923828125 -29.1015625Q320.484375 -33.349609375 319.263671875 -36.71875Q318.04296875 -40.087890625 316.138671875 -42.431640625Q314.234375 -44.775390625 311.646484375 -46.044921875Q309.05859375 -47.314453125 305.93359375 -47.314453125Q303.1015625 -47.314453125 300.7333984375 -46.0693359375Q298.365234375 -44.82421875 296.607421875 -42.48046875Q294.849609375 -40.13671875 293.775390625 -36.7431640625Q292.701171875 -33.349609375 292.505859375 -29.00390625Q294.703125 -28.90625 297.14453125 -28.90625Q299.5859375 -28.90625 302.22265625 -28.90625Z" fill="#0B0A12"/></g></g><line x1="56" y1="688" x2="1184" y2="688" stroke="#1B1828" stroke-width="1"/><text x="56" y="718" fill="#9A95B4" font-family="Geist,Inter,system-ui,sans-serif" font-size="13" font-weight="600" text-anchor="start" letter-spacing="0.2">TWILIGHT ROYAL PALETTE</text><rect x="56" y="736" width="212" height="92" rx="14" fill="#8B6DFF" stroke="#221E34" stroke-width="1"/><text x="74" y="772" fill="#0B0A12" font-family="Geist,Inter,system-ui,sans-serif" font-size="15" font-weight="600" text-anchor="start" letter-spacing="0.2">Royal Purple</text><text x="74" y="794" fill="#0B0A12" font-family="Geist Mono,ui-monospace,monospace" font-size="12" font-weight="400" text-anchor="start" letter-spacing="0.2">#8B6DFF</text><text x="74" y="814" fill="#0B0A12" font-family="Geist,Inter,system-ui,sans-serif" font-size="11" font-weight="400" text-anchor="start" letter-spacing="0.2">primary</text><rect x="280" y="736" width="212" height="92" rx="14" fill="#E2B45C" stroke="#221E34" stroke-width="1"/><text x="298" y="772" fill="#0B0A12" font-family="Geist,Inter,system-ui,sans-serif" font-size="15" font-weight="600" text-anchor="start" letter-spacing="0.2">Gold</text><text x="298" y="794" fill="#0B0A12" font-family="Geist Mono,ui-monospace,monospace" font-size="12" font-weight="400" text-anchor="start" letter-spacing="0.2">#E2B45C</text><text x="298" y="814" fill="#0B0A12" font-family="Geist,Inter,system-ui,sans-serif" font-size="11" font-weight="400" text-anchor="start" letter-spacing="0.2">accent</text><rect x="504" y="736" width="212" height="92" rx="14" fill="#0B0A12" stroke="#221E34" stroke-width="1"/><text x="522" y="772" fill="#ECEAF5" font-family="Geist,Inter,system-ui,sans-serif" font-size="15" font-weight="600" text-anchor="start" letter-spacing="0.2">Twilight</text><text x="522" y="794" fill="#ECEAF5" font-family="Geist Mono,ui-monospace,monospace" font-size="12" font-weight="400" text-anchor="start" letter-spacing="0.2">#0B0A12</text><text x="522" y="814" fill="#ECEAF5" font-family="Geist,Inter,system-ui,sans-serif" font-size="11" font-weight="400" text-anchor="start" letter-spacing="0.2">background</text><rect x="728" y="736" width="212" height="92" rx="14" fill="#14121E" stroke="#221E34" stroke-width="1"/><text x="746" y="772" fill="#ECEAF5" font-family="Geist,Inter,system-ui,sans-serif" font-size="15" font-weight="600" text-anchor="start" letter-spacing="0.2">Surface</text><text x="746" y="794" fill="#ECEAF5" font-family="Geist Mono,ui-monospace,monospace" font-size="12" font-weight="400" text-anchor="start" letter-spacing="0.2">#14121E</text><text x="746" y="814" fill="#ECEAF5" font-family="Geist,Inter,system-ui,sans-serif" font-size="11" font-weight="400" text-anchor="start" letter-spacing="0.2">surface</text><rect x="952" y="736" width="212" height="92" rx="14" fill="#ECEAF5" stroke="#221E34" stroke-width="1"/><text x="970" y="772" fill="#0B0A12" font-family="Geist,Inter,system-ui,sans-serif" font-size="15" font-weight="600" text-anchor="start" letter-spacing="0.2">Off-white</text><text x="970" y="794" fill="#0B0A12" font-family="Geist Mono,ui-monospace,monospace" font-size="12" font-weight="400" text-anchor="start" letter-spacing="0.2">#ECEAF5</text><text x="970" y="814" fill="#0B0A12" font-family="Geist,Inter,system-ui,sans-serif" font-size="11" font-weight="400" text-anchor="start" letter-spacing="0.2">text</text><text x="56" y="876" fill="#56516E" font-family="Geist,Inter,system-ui,sans-serif" font-size="12" font-weight="400" text-anchor="start" letter-spacing="0.2">Type: Marcellus (wordmark) · Geist (UI) · Geist Mono (technical). Wordmark delivered as outlined vectors — no font dependency.</text><text x="56" y="898" fill="#46425C" font-family="Geist,Inter,system-ui,sans-serif" font-size="11" font-weight="400" text-anchor="start" letter-spacing="0.2">All assets vector SVG · server-legal original artwork · no third-party trademarks.</text></svg>